<svg version="1.1" id="Layer_3" xmlns="http://www.w3.org/2000/svg" xmlns:xlink="http://www.w3.org/1999/xlink" x="0px" y="0px" viewBox="0 0 64 64" style="enable-background:new 0 0 64 64;" xml:space="preserve">
<g>
	<path style="fill:#686868;" d="M25,25.348V15c0-3.866,3.134-7,7-7s7,3.134,7,7v5h6v-5c0-7.18-5.82-13-13-13S19,7.82,19,15v14.17
		C20.729,27.544,22.757,26.239,25,25.348z"></path>
	<rect x="39" y="16" style="fill:#939393;" width="6" height="4"></rect>
	<circle style="fill:#F3A845;" cx="32" cy="43" r="19"></circle>
	<circle style="fill:#EECC61;" cx="32" cy="43" r="15"></circle>
	<circle style="fill:#FCE79C;" cx="32" cy="43" r="11"></circle>
	<path style="fill:#FFFFFF;" d="M37,39c0-2.761-2.239-5-5-5s-5,2.239-5,5c0,1.63,0.792,3.065,2,3.977V49c0,1.657,1.343,3,3,3
		s3-1.343,3-3v-6.023C36.208,42.065,37,40.63,37,39z"></path>
	<g>
		<path d="M32,23c-2.09,0-4.105,0.325-6,0.922V15c0-3.309,2.691-6,6-6s6,2.691,6,6v5c0,0.552,0.447,1,1,1h6c0.553,0,1-0.448,1-1v-5
			c0-7.72-6.28-14-14-14S18,7.28,18,15v13.741C14.302,32.373,12,37.42,12,43c0,11.028,8.972,20,20,20s20-8.972,20-20
			S43.028,23,32,23z M40,19v-2h4v2H40z M20,15c0-6.617,5.383-12,12-12s12,5.383,12,12h-4c0-4.411-3.589-8-8-8s-8,3.589-8,8v9.682
			c-1.431,0.628-2.766,1.427-4,2.357V15z M32,61c-9.925,0-18-8.075-18-18s8.075-18,18-18s18,8.075,18,18S41.925,61,32,61z"></path>
		<path d="M32,33c-3.309,0-6,2.691-6,6c0,1.713,0.723,3.308,2,4.449V49c0,2.206,1.794,4,4,4s4-1.794,4-4v-5.551
			c1.277-1.141,2-2.736,2-4.449C38,35.691,35.309,33,32,33z M34.397,42.18C34.146,42.369,34,42.664,34,42.978V49
			c0,1.103-0.897,2-2,2s-2-0.897-2-2v-6.022c0-0.313-0.146-0.609-0.397-0.798C28.584,41.41,28,40.251,28,39c0-2.206,1.794-4,4-4
			s4,1.794,4,4C36,40.251,35.416,41.41,34.397,42.18z"></path>
		<path d="M32,27c-8.822,0-16,7.178-16,16s7.178,16,16,16s16-7.178,16-16S40.822,27,32,27z M32,57c-7.72,0-14-6.28-14-14
			s6.28-14,14-14s14,6.28,14,14S39.72,57,32,57z"></path>
	</g>
</g>
</svg>